<mxfile host="app.diagrams.net" modified="2024-01-29T11:19:37.190Z" agent="Mozilla/5.0 (Windows NT 10.0; Win64; x64) AppleWebKit/537.36 (KHTML, like Gecko) Chrome/120.0.0.0 Safari/537.36" etag="BXu9WPoxFwkGXvbHW_-T" version="23.0.2" type="github">
  <diagram name="Page-1" id="97916047-d0de-89f5-080d-49f4d83e522f">
    <mxGraphModel dx="1909" dy="1027" grid="1" gridSize="10" guides="1" tooltips="1" connect="1" arrows="1" fold="1" page="1" pageScale="1.5" pageWidth="1169" pageHeight="827" background="none" math="0" shadow="0">
      <root>
        <mxCell id="0" />
        <mxCell id="1" parent="0" />
        <mxCell id="D0tFQq6_KejYttDr2Z5K-110" value="" style="endArrow=classic;startArrow=classic;html=1;rounded=0;entryX=0;entryY=0.5;entryDx=0;entryDy=0;strokeWidth=4;exitX=1;exitY=0.5;exitDx=0;exitDy=0;" edge="1" parent="1" source="2" target="D0tFQq6_KejYttDr2Z5K-99">
          <mxGeometry width="50" height="50" relative="1" as="geometry">
            <mxPoint x="540" y="210" as="sourcePoint" />
            <mxPoint x="970" y="210" as="targetPoint" />
          </mxGeometry>
        </mxCell>
        <mxCell id="2" value="R &amp; D Lead" style="rounded=1;fillColor=#10739E;strokeColor=none;shadow=1;gradientColor=none;fontStyle=1;fontColor=#FFFFFF;fontSize=14;" parent="1" vertex="1">
          <mxGeometry x="330" y="170" width="200" height="60" as="geometry" />
        </mxCell>
        <mxCell id="3" value="Automation TL" style="rounded=1;fillColor=#10739E;strokeColor=none;shadow=1;gradientColor=none;fontStyle=1;fontColor=#FFFFFF;fontSize=14;" parent="1" vertex="1">
          <mxGeometry x="100" y="280" width="200" height="60" as="geometry" />
        </mxCell>
        <mxCell id="4" value="Automation Team" style="rounded=1;fillColor=#10739E;strokeColor=none;shadow=1;gradientColor=none;fontStyle=1;fontColor=#FFFFFF;fontSize=14;" parent="1" vertex="1">
          <mxGeometry x="1928" y="132.25" width="200" height="60" as="geometry" />
        </mxCell>
        <mxCell id="5" value="Office of Public Relations" style="rounded=1;fillColor=#10739E;strokeColor=none;shadow=1;gradientColor=none;fontStyle=1;fontColor=#FFFFFF;fontSize=14;" parent="1" vertex="1">
          <mxGeometry x="1894" y="445.5" width="200" height="60" as="geometry" />
        </mxCell>
        <mxCell id="6" value="Counsel Division" style="rounded=1;fillColor=#10739E;strokeColor=none;shadow=1;gradientColor=none;fontStyle=1;fontColor=#FFFFFF;fontSize=14;" parent="1" vertex="1">
          <mxGeometry x="2140" y="427.75" width="200" height="60" as="geometry" />
        </mxCell>
        <mxCell id="D0tFQq6_KejYttDr2Z5K-58" style="edgeStyle=orthogonalEdgeStyle;rounded=0;orthogonalLoop=1;jettySize=auto;html=1;exitX=1;exitY=0.5;exitDx=0;exitDy=0;entryX=0;entryY=0.5;entryDx=0;entryDy=0;strokeWidth=4;dashed=1;" edge="1" parent="1" source="7" target="2">
          <mxGeometry relative="1" as="geometry" />
        </mxCell>
        <mxCell id="7" value="Advisory / &#xa;Senior Management&#xa;" style="rounded=1;fillColor=#10739E;strokeColor=none;shadow=1;gradientColor=none;fontStyle=1;fontColor=#FFFFFF;fontSize=14;" parent="1" vertex="1">
          <mxGeometry x="20" y="170" width="200" height="60" as="geometry" />
        </mxCell>
        <mxCell id="8" value="Developer" style="rounded=1;fillColor=#10739E;strokeColor=none;shadow=1;gradientColor=none;fontStyle=1;fontColor=#FFFFFF;fontSize=14;" parent="1" vertex="1">
          <mxGeometry x="10" y="410" width="110" height="60" as="geometry" />
        </mxCell>
        <mxCell id="13" value="IT&#xa;Division" style="rounded=1;fillColor=#10739E;strokeColor=none;shadow=1;gradientColor=none;fontStyle=1;fontColor=#FFFFFF;fontSize=14;" parent="1" vertex="1">
          <mxGeometry x="1820" y="587.75" width="200" height="60" as="geometry" />
        </mxCell>
        <mxCell id="18" value="Management Programs &#xa;Division" style="rounded=1;fillColor=#10739E;strokeColor=none;shadow=1;gradientColor=none;fontStyle=1;fontColor=#FFFFFF;fontSize=14;" parent="1" vertex="1">
          <mxGeometry x="2110" y="587.75" width="200" height="60" as="geometry" />
        </mxCell>
        <mxCell id="19" value="Office of Financial &#xa;Management" style="rounded=1;fillColor=#10739E;strokeColor=none;shadow=1;gradientColor=none;fontStyle=1;fontColor=#FFFFFF;fontSize=14;" parent="1" vertex="1">
          <mxGeometry x="1832" y="677.75" width="200" height="60" as="geometry" />
        </mxCell>
        <mxCell id="20" value="Office of Human Resources" style="rounded=1;fillColor=#10739E;strokeColor=none;shadow=1;gradientColor=none;fontStyle=1;fontColor=#FFFFFF;fontSize=14;" parent="1" vertex="1">
          <mxGeometry x="1832" y="767.75" width="200" height="60" as="geometry" />
        </mxCell>
        <mxCell id="21" value="Office of Management " style="rounded=1;fillColor=#10739E;strokeColor=none;shadow=1;gradientColor=none;fontStyle=1;fontColor=#FFFFFF;fontSize=14;" parent="1" vertex="1">
          <mxGeometry x="1832" y="857.75" width="200" height="60" as="geometry" />
        </mxCell>
        <mxCell id="22" value="Office of Training Services" style="rounded=1;fillColor=#10739E;strokeColor=none;shadow=1;gradientColor=none;fontStyle=1;fontColor=#FFFFFF;fontSize=14;" parent="1" vertex="1">
          <mxGeometry x="1832" y="947.75" width="200" height="60" as="geometry" />
        </mxCell>
        <mxCell id="23" value="Regulatory &#xa;and Enforcement Division" style="rounded=1;fillColor=#10739E;strokeColor=none;shadow=1;gradientColor=none;fontStyle=1;fontColor=#FFFFFF;fontSize=14;" parent="1" vertex="1">
          <mxGeometry x="2082" y="587.75" width="200" height="60" as="geometry" />
        </mxCell>
        <mxCell id="24" value="Office of Regulatory Policy" style="rounded=1;fillColor=#10739E;strokeColor=none;shadow=1;gradientColor=none;fontStyle=1;fontColor=#FFFFFF;fontSize=14;" parent="1" vertex="1">
          <mxGeometry x="2082" y="677.75" width="200" height="60" as="geometry" />
        </mxCell>
        <mxCell id="25" value="Office Compliance" style="rounded=1;fillColor=#10739E;strokeColor=none;shadow=1;gradientColor=none;fontStyle=1;fontColor=#FFFFFF;fontSize=14;" parent="1" vertex="1">
          <mxGeometry x="2082" y="767.75" width="200" height="60" as="geometry" />
        </mxCell>
        <mxCell id="26" value="Office of &#xa;Enforcement" style="rounded=1;fillColor=#10739E;strokeColor=none;shadow=1;gradientColor=none;fontStyle=1;fontColor=#FFFFFF;fontSize=14;" parent="1" vertex="1">
          <mxGeometry x="2082" y="857.75" width="200" height="60" as="geometry" />
        </mxCell>
        <mxCell id="27" value="Office of&#xa; Regulatory Support" style="rounded=1;fillColor=#10739E;strokeColor=none;shadow=1;gradientColor=none;fontStyle=1;fontColor=#FFFFFF;fontSize=14;" parent="1" vertex="1">
          <mxGeometry x="2082" y="947.75" width="200" height="60" as="geometry" />
        </mxCell>
        <mxCell id="29" value="" style="edgeStyle=elbowEdgeStyle;elbow=vertical;strokeWidth=4;endArrow=block;endFill=1;fontStyle=1;strokeColor=#23445D;" parent="1" source="2" target="3" edge="1">
          <mxGeometry x="22" y="165.5" width="100" height="100" as="geometry">
            <mxPoint x="22" y="265.5" as="sourcePoint" />
            <mxPoint x="122" y="165.5" as="targetPoint" />
          </mxGeometry>
        </mxCell>
        <mxCell id="30" value="" style="edgeStyle=elbowEdgeStyle;elbow=vertical;strokeWidth=4;endArrow=block;endFill=1;fontStyle=1;strokeColor=#23445D;entryX=0.5;entryY=0;entryDx=0;entryDy=0;exitX=0.5;exitY=1;exitDx=0;exitDy=0;" parent="1" source="3" target="D0tFQq6_KejYttDr2Z5K-66" edge="1">
          <mxGeometry x="22" y="165.5" width="100" height="100" as="geometry">
            <mxPoint x="220" y="360" as="sourcePoint" />
            <mxPoint x="512" y="425.5" as="targetPoint" />
          </mxGeometry>
        </mxCell>
        <mxCell id="39" value="" style="edgeStyle=elbowEdgeStyle;elbow=vertical;strokeWidth=4;endArrow=block;endFill=1;fontStyle=1;strokeColor=#23445D;" parent="1" target="10" edge="1">
          <mxGeometry x="62" y="175.5" width="100" height="100" as="geometry">
            <mxPoint x="382" y="765.5" as="sourcePoint" />
            <mxPoint x="162" y="175.5" as="targetPoint" />
          </mxGeometry>
        </mxCell>
        <mxCell id="40" value="" style="edgeStyle=elbowEdgeStyle;elbow=vertical;strokeWidth=4;endArrow=block;endFill=1;fontStyle=1;strokeColor=#23445D;" parent="1" target="11" edge="1">
          <mxGeometry x="62" y="185.5" width="100" height="100" as="geometry">
            <mxPoint x="382" y="855.5" as="sourcePoint" />
            <mxPoint x="162" y="185.5" as="targetPoint" />
          </mxGeometry>
        </mxCell>
        <mxCell id="41" value="" style="edgeStyle=elbowEdgeStyle;elbow=vertical;strokeWidth=4;endArrow=block;endFill=1;fontStyle=1;strokeColor=#23445D;" parent="1" target="12" edge="1">
          <mxGeometry x="62" y="195.5" width="100" height="100" as="geometry">
            <mxPoint x="382" y="945.5" as="sourcePoint" />
            <mxPoint x="162" y="195.5" as="targetPoint" />
          </mxGeometry>
        </mxCell>
        <mxCell id="42" value="" style="edgeStyle=elbowEdgeStyle;elbow=vertical;strokeWidth=4;endArrow=block;endFill=1;fontStyle=1;strokeColor=#23445D;" parent="1" source="13" edge="1">
          <mxGeometry x="62" y="165.5" width="100" height="100" as="geometry">
            <mxPoint x="1330" y="237.75" as="sourcePoint" />
            <mxPoint x="1920" y="677.75" as="targetPoint" />
          </mxGeometry>
        </mxCell>
        <mxCell id="43" value="" style="edgeStyle=elbowEdgeStyle;elbow=vertical;strokeWidth=4;endArrow=block;endFill=1;fontStyle=1;strokeColor=#23445D;" parent="1" target="15" edge="1">
          <mxGeometry x="62" y="175.5" width="100" height="100" as="geometry">
            <mxPoint x="652" y="765.5" as="sourcePoint" />
            <mxPoint x="162" y="175.5" as="targetPoint" />
          </mxGeometry>
        </mxCell>
        <mxCell id="44" value="" style="edgeStyle=elbowEdgeStyle;elbow=vertical;strokeWidth=4;endArrow=block;endFill=1;fontStyle=1;strokeColor=#23445D;" parent="1" target="16" edge="1">
          <mxGeometry x="62" y="185.5" width="100" height="100" as="geometry">
            <mxPoint x="652" y="855.5" as="sourcePoint" />
            <mxPoint x="162" y="185.5" as="targetPoint" />
          </mxGeometry>
        </mxCell>
        <mxCell id="46" value="" style="edgeStyle=elbowEdgeStyle;elbow=vertical;strokeWidth=4;endArrow=block;endFill=1;fontStyle=1;strokeColor=#23445D;" parent="1" source="18" edge="1">
          <mxGeometry x="72" y="165.5" width="100" height="100" as="geometry">
            <mxPoint x="1340" y="237.75" as="sourcePoint" />
            <mxPoint x="2210" y="677.75" as="targetPoint" />
          </mxGeometry>
        </mxCell>
        <mxCell id="47" value="" style="edgeStyle=elbowEdgeStyle;elbow=vertical;strokeWidth=4;endArrow=block;endFill=1;fontStyle=1;strokeColor=#23445D;" parent="1" source="19" target="20" edge="1">
          <mxGeometry x="72" y="175.5" width="100" height="100" as="geometry">
            <mxPoint x="1062" y="247.75" as="sourcePoint" />
            <mxPoint x="1162" y="147.75" as="targetPoint" />
          </mxGeometry>
        </mxCell>
        <mxCell id="48" value="" style="edgeStyle=elbowEdgeStyle;elbow=vertical;strokeWidth=4;endArrow=block;endFill=1;fontStyle=1;strokeColor=#23445D;" parent="1" source="20" target="21" edge="1">
          <mxGeometry x="72" y="185.5" width="100" height="100" as="geometry">
            <mxPoint x="1062" y="257.75" as="sourcePoint" />
            <mxPoint x="1162" y="157.75" as="targetPoint" />
          </mxGeometry>
        </mxCell>
        <mxCell id="49" value="" style="edgeStyle=elbowEdgeStyle;elbow=vertical;strokeWidth=4;endArrow=block;endFill=1;fontStyle=1;strokeColor=#23445D;" parent="1" source="21" target="22" edge="1">
          <mxGeometry x="72" y="195.5" width="100" height="100" as="geometry">
            <mxPoint x="1062" y="267.75" as="sourcePoint" />
            <mxPoint x="1162" y="167.75" as="targetPoint" />
          </mxGeometry>
        </mxCell>
        <mxCell id="50" value="" style="edgeStyle=elbowEdgeStyle;elbow=vertical;strokeWidth=4;endArrow=block;endFill=1;fontStyle=1;strokeColor=#23445D;" parent="1" source="23" target="24" edge="1">
          <mxGeometry x="72" y="165.5" width="100" height="100" as="geometry">
            <mxPoint x="1062" y="237.75" as="sourcePoint" />
            <mxPoint x="1162" y="137.75" as="targetPoint" />
          </mxGeometry>
        </mxCell>
        <mxCell id="51" value="" style="edgeStyle=elbowEdgeStyle;elbow=vertical;strokeWidth=4;endArrow=block;endFill=1;fontStyle=1;strokeColor=#23445D;" parent="1" source="24" target="25" edge="1">
          <mxGeometry x="72" y="175.5" width="100" height="100" as="geometry">
            <mxPoint x="1062" y="247.75" as="sourcePoint" />
            <mxPoint x="1162" y="147.75" as="targetPoint" />
          </mxGeometry>
        </mxCell>
        <mxCell id="52" value="" style="edgeStyle=elbowEdgeStyle;elbow=vertical;strokeWidth=4;endArrow=block;endFill=1;fontStyle=1;strokeColor=#23445D;" parent="1" source="25" target="26" edge="1">
          <mxGeometry x="72" y="185.5" width="100" height="100" as="geometry">
            <mxPoint x="1062" y="257.75" as="sourcePoint" />
            <mxPoint x="1162" y="157.75" as="targetPoint" />
          </mxGeometry>
        </mxCell>
        <mxCell id="53" value="" style="edgeStyle=elbowEdgeStyle;elbow=vertical;strokeWidth=4;endArrow=block;endFill=1;fontStyle=1;strokeColor=#23445D;" parent="1" source="26" target="27" edge="1">
          <mxGeometry x="72" y="195.5" width="100" height="100" as="geometry">
            <mxPoint x="1062" y="267.75" as="sourcePoint" />
            <mxPoint x="1162" y="167.75" as="targetPoint" />
          </mxGeometry>
        </mxCell>
        <mxCell id="D0tFQq6_KejYttDr2Z5K-56" value="" style="endArrow=classic;html=1;rounded=0;" edge="1" parent="1">
          <mxGeometry width="50" height="50" relative="1" as="geometry">
            <mxPoint x="1862" y="460" as="sourcePoint" />
            <mxPoint x="1912" y="410" as="targetPoint" />
          </mxGeometry>
        </mxCell>
        <mxCell id="D0tFQq6_KejYttDr2Z5K-57" value="" style="endArrow=none;dashed=1;html=1;dashPattern=1 3;strokeWidth=2;rounded=0;" edge="1" parent="1">
          <mxGeometry width="50" height="50" relative="1" as="geometry">
            <mxPoint x="1862" y="460" as="sourcePoint" />
            <mxPoint x="1912" y="410" as="targetPoint" />
          </mxGeometry>
        </mxCell>
        <mxCell id="D0tFQq6_KejYttDr2Z5K-60" value="Office of Public Relations" style="rounded=1;fillColor=#10739E;strokeColor=none;shadow=1;gradientColor=none;fontStyle=1;fontColor=#FFFFFF;fontSize=14;" vertex="1" parent="1">
          <mxGeometry x="1878" y="302.25" width="200" height="60" as="geometry" />
        </mxCell>
        <mxCell id="D0tFQq6_KejYttDr2Z5K-63" value="Developer" style="rounded=1;fillColor=#10739E;strokeColor=none;shadow=1;gradientColor=none;fontStyle=1;fontColor=#FFFFFF;fontSize=14;" vertex="1" parent="1">
          <mxGeometry x="80" y="490" width="110" height="60" as="geometry" />
        </mxCell>
        <mxCell id="D0tFQq6_KejYttDr2Z5K-64" value="Developer" style="rounded=1;fillColor=#10739E;strokeColor=none;shadow=1;gradientColor=none;fontStyle=1;fontColor=#FFFFFF;fontSize=14;" vertex="1" parent="1">
          <mxGeometry x="200" y="490" width="110" height="60" as="geometry" />
        </mxCell>
        <mxCell id="D0tFQq6_KejYttDr2Z5K-66" value="Developer" style="rounded=1;fillColor=#10739E;strokeColor=none;shadow=1;gradientColor=none;fontStyle=1;fontColor=#FFFFFF;fontSize=14;" vertex="1" parent="1">
          <mxGeometry x="270" y="410" width="110" height="60" as="geometry" />
        </mxCell>
        <mxCell id="D0tFQq6_KejYttDr2Z5K-67" value="" style="edgeStyle=elbowEdgeStyle;elbow=vertical;strokeWidth=4;endArrow=block;endFill=1;fontStyle=1;strokeColor=#23445D;entryX=0.5;entryY=0;entryDx=0;entryDy=0;exitX=0.5;exitY=1;exitDx=0;exitDy=0;" edge="1" parent="1" source="3" target="D0tFQq6_KejYttDr2Z5K-64">
          <mxGeometry x="22" y="165.5" width="100" height="100" as="geometry">
            <mxPoint x="190" y="350" as="sourcePoint" />
            <mxPoint x="437" y="420" as="targetPoint" />
          </mxGeometry>
        </mxCell>
        <mxCell id="D0tFQq6_KejYttDr2Z5K-68" value="" style="edgeStyle=elbowEdgeStyle;elbow=vertical;strokeWidth=4;endArrow=block;endFill=1;fontStyle=1;strokeColor=#23445D;entryX=0.5;entryY=0;entryDx=0;entryDy=0;exitX=0.5;exitY=1;exitDx=0;exitDy=0;" edge="1" parent="1" source="3" target="D0tFQq6_KejYttDr2Z5K-63">
          <mxGeometry x="22" y="165.5" width="100" height="100" as="geometry">
            <mxPoint x="-40" y="340" as="sourcePoint" />
            <mxPoint x="207" y="410" as="targetPoint" />
          </mxGeometry>
        </mxCell>
        <mxCell id="D0tFQq6_KejYttDr2Z5K-69" value="" style="edgeStyle=elbowEdgeStyle;elbow=vertical;strokeWidth=4;endArrow=block;endFill=1;fontStyle=1;strokeColor=#23445D;entryX=0.5;entryY=0;entryDx=0;entryDy=0;exitX=0.5;exitY=1;exitDx=0;exitDy=0;" edge="1" parent="1" source="3" target="8">
          <mxGeometry x="22" y="165.5" width="100" height="100" as="geometry">
            <mxPoint x="200" y="340" as="sourcePoint" />
            <mxPoint x="447" y="410" as="targetPoint" />
          </mxGeometry>
        </mxCell>
        <mxCell id="D0tFQq6_KejYttDr2Z5K-70" value="Tooling TL" style="rounded=1;fillColor=#10739E;strokeColor=none;shadow=1;gradientColor=none;fontStyle=1;fontColor=#FFFFFF;fontSize=14;" vertex="1" parent="1">
          <mxGeometry x="330" y="550" width="200" height="60" as="geometry" />
        </mxCell>
        <mxCell id="D0tFQq6_KejYttDr2Z5K-71" value="Developer" style="rounded=1;fillColor=#10739E;strokeColor=none;shadow=1;gradientColor=none;fontStyle=1;fontColor=#FFFFFF;fontSize=14;" vertex="1" parent="1">
          <mxGeometry x="240" y="680" width="110" height="60" as="geometry" />
        </mxCell>
        <mxCell id="D0tFQq6_KejYttDr2Z5K-72" value="" style="edgeStyle=elbowEdgeStyle;elbow=vertical;strokeWidth=4;endArrow=block;endFill=1;fontStyle=1;strokeColor=#23445D;exitX=0.5;exitY=1;exitDx=0;exitDy=0;" edge="1" parent="1" target="D0tFQq6_KejYttDr2Z5K-70" source="2">
          <mxGeometry x="22" y="165.5" width="100" height="100" as="geometry">
            <mxPoint x="950" y="265.5" as="sourcePoint" />
            <mxPoint x="612" y="165" as="targetPoint" />
          </mxGeometry>
        </mxCell>
        <mxCell id="D0tFQq6_KejYttDr2Z5K-73" value="" style="edgeStyle=elbowEdgeStyle;elbow=vertical;strokeWidth=4;endArrow=block;endFill=1;fontStyle=1;strokeColor=#23445D;entryX=0.5;entryY=0;entryDx=0;entryDy=0;exitX=0.5;exitY=1;exitDx=0;exitDy=0;" edge="1" parent="1" source="D0tFQq6_KejYttDr2Z5K-70" target="D0tFQq6_KejYttDr2Z5K-76">
          <mxGeometry x="22" y="165.5" width="100" height="100" as="geometry">
            <mxPoint x="450" y="630" as="sourcePoint" />
            <mxPoint x="742" y="695.5" as="targetPoint" />
          </mxGeometry>
        </mxCell>
        <mxCell id="D0tFQq6_KejYttDr2Z5K-74" value="Developer" style="rounded=1;fillColor=#10739E;strokeColor=none;shadow=1;gradientColor=none;fontStyle=1;fontColor=#FFFFFF;fontSize=14;" vertex="1" parent="1">
          <mxGeometry x="310" y="760" width="110" height="60" as="geometry" />
        </mxCell>
        <mxCell id="D0tFQq6_KejYttDr2Z5K-75" value="Developer" style="rounded=1;fillColor=#10739E;strokeColor=none;shadow=1;gradientColor=none;fontStyle=1;fontColor=#FFFFFF;fontSize=14;" vertex="1" parent="1">
          <mxGeometry x="430" y="760" width="110" height="60" as="geometry" />
        </mxCell>
        <mxCell id="D0tFQq6_KejYttDr2Z5K-76" value="Developer" style="rounded=1;fillColor=#10739E;strokeColor=none;shadow=1;gradientColor=none;fontStyle=1;fontColor=#FFFFFF;fontSize=14;" vertex="1" parent="1">
          <mxGeometry x="500" y="680" width="110" height="60" as="geometry" />
        </mxCell>
        <mxCell id="D0tFQq6_KejYttDr2Z5K-77" value="" style="edgeStyle=elbowEdgeStyle;elbow=vertical;strokeWidth=4;endArrow=block;endFill=1;fontStyle=1;strokeColor=#23445D;entryX=0.5;entryY=0;entryDx=0;entryDy=0;exitX=0.5;exitY=1;exitDx=0;exitDy=0;" edge="1" parent="1" source="D0tFQq6_KejYttDr2Z5K-70" target="D0tFQq6_KejYttDr2Z5K-75">
          <mxGeometry x="22" y="165.5" width="100" height="100" as="geometry">
            <mxPoint x="420" y="620" as="sourcePoint" />
            <mxPoint x="667" y="690" as="targetPoint" />
          </mxGeometry>
        </mxCell>
        <mxCell id="D0tFQq6_KejYttDr2Z5K-78" value="" style="edgeStyle=elbowEdgeStyle;elbow=vertical;strokeWidth=4;endArrow=block;endFill=1;fontStyle=1;strokeColor=#23445D;entryX=0.5;entryY=0;entryDx=0;entryDy=0;exitX=0.5;exitY=1;exitDx=0;exitDy=0;" edge="1" parent="1" source="D0tFQq6_KejYttDr2Z5K-70" target="D0tFQq6_KejYttDr2Z5K-74">
          <mxGeometry x="22" y="165.5" width="100" height="100" as="geometry">
            <mxPoint x="190" y="610" as="sourcePoint" />
            <mxPoint x="437" y="680" as="targetPoint" />
          </mxGeometry>
        </mxCell>
        <mxCell id="D0tFQq6_KejYttDr2Z5K-79" value="" style="edgeStyle=elbowEdgeStyle;elbow=vertical;strokeWidth=4;endArrow=block;endFill=1;fontStyle=1;strokeColor=#23445D;entryX=0.5;entryY=0;entryDx=0;entryDy=0;exitX=0.5;exitY=1;exitDx=0;exitDy=0;" edge="1" parent="1" source="D0tFQq6_KejYttDr2Z5K-70" target="D0tFQq6_KejYttDr2Z5K-71">
          <mxGeometry x="22" y="165.5" width="100" height="100" as="geometry">
            <mxPoint x="430" y="610" as="sourcePoint" />
            <mxPoint x="677" y="680" as="targetPoint" />
          </mxGeometry>
        </mxCell>
        <mxCell id="D0tFQq6_KejYttDr2Z5K-80" value="Technology TL" style="rounded=1;fillColor=#10739E;strokeColor=none;shadow=1;gradientColor=none;fontStyle=1;fontColor=#FFFFFF;fontSize=14;" vertex="1" parent="1">
          <mxGeometry x="570" y="280" width="200" height="60" as="geometry" />
        </mxCell>
        <mxCell id="D0tFQq6_KejYttDr2Z5K-81" value="Developer" style="rounded=1;fillColor=#10739E;strokeColor=none;shadow=1;gradientColor=none;fontStyle=1;fontColor=#FFFFFF;fontSize=14;" vertex="1" parent="1">
          <mxGeometry x="480" y="410" width="110" height="60" as="geometry" />
        </mxCell>
        <mxCell id="D0tFQq6_KejYttDr2Z5K-82" value="" style="edgeStyle=elbowEdgeStyle;elbow=vertical;strokeWidth=4;endArrow=block;endFill=1;fontStyle=1;strokeColor=#23445D;exitX=0.5;exitY=1;exitDx=0;exitDy=0;" edge="1" parent="1" target="D0tFQq6_KejYttDr2Z5K-80" source="2">
          <mxGeometry x="22" y="165.5" width="100" height="100" as="geometry">
            <mxPoint x="1160" y="266" as="sourcePoint" />
            <mxPoint x="822" y="165.5" as="targetPoint" />
          </mxGeometry>
        </mxCell>
        <mxCell id="D0tFQq6_KejYttDr2Z5K-83" value="" style="edgeStyle=elbowEdgeStyle;elbow=vertical;strokeWidth=4;endArrow=block;endFill=1;fontStyle=1;strokeColor=#23445D;entryX=0.5;entryY=0;entryDx=0;entryDy=0;exitX=0.5;exitY=1;exitDx=0;exitDy=0;" edge="1" parent="1" source="D0tFQq6_KejYttDr2Z5K-80" target="D0tFQq6_KejYttDr2Z5K-86">
          <mxGeometry x="22" y="165.5" width="100" height="100" as="geometry">
            <mxPoint x="690" y="360" as="sourcePoint" />
            <mxPoint x="982" y="425.5" as="targetPoint" />
          </mxGeometry>
        </mxCell>
        <mxCell id="D0tFQq6_KejYttDr2Z5K-84" value="Developer" style="rounded=1;fillColor=#10739E;strokeColor=none;shadow=1;gradientColor=none;fontStyle=1;fontColor=#FFFFFF;fontSize=14;" vertex="1" parent="1">
          <mxGeometry x="550" y="480" width="110" height="60" as="geometry" />
        </mxCell>
        <mxCell id="D0tFQq6_KejYttDr2Z5K-85" value="Developer" style="rounded=1;fillColor=#10739E;strokeColor=none;shadow=1;gradientColor=none;fontStyle=1;fontColor=#FFFFFF;fontSize=14;" vertex="1" parent="1">
          <mxGeometry x="670" y="480" width="110" height="60" as="geometry" />
        </mxCell>
        <mxCell id="D0tFQq6_KejYttDr2Z5K-86" value="Developer" style="rounded=1;fillColor=#10739E;strokeColor=none;shadow=1;gradientColor=none;fontStyle=1;fontColor=#FFFFFF;fontSize=14;" vertex="1" parent="1">
          <mxGeometry x="740" y="410" width="110" height="60" as="geometry" />
        </mxCell>
        <mxCell id="D0tFQq6_KejYttDr2Z5K-87" value="" style="edgeStyle=elbowEdgeStyle;elbow=vertical;strokeWidth=4;endArrow=block;endFill=1;fontStyle=1;strokeColor=#23445D;entryX=0.5;entryY=0;entryDx=0;entryDy=0;exitX=0.5;exitY=1;exitDx=0;exitDy=0;" edge="1" parent="1" source="D0tFQq6_KejYttDr2Z5K-80" target="D0tFQq6_KejYttDr2Z5K-85">
          <mxGeometry x="22" y="165.5" width="100" height="100" as="geometry">
            <mxPoint x="660" y="350" as="sourcePoint" />
            <mxPoint x="907" y="420" as="targetPoint" />
          </mxGeometry>
        </mxCell>
        <mxCell id="D0tFQq6_KejYttDr2Z5K-88" value="" style="edgeStyle=elbowEdgeStyle;elbow=vertical;strokeWidth=4;endArrow=block;endFill=1;fontStyle=1;strokeColor=#23445D;entryX=0.5;entryY=0;entryDx=0;entryDy=0;exitX=0.5;exitY=1;exitDx=0;exitDy=0;" edge="1" parent="1" source="D0tFQq6_KejYttDr2Z5K-80" target="D0tFQq6_KejYttDr2Z5K-84">
          <mxGeometry x="22" y="165.5" width="100" height="100" as="geometry">
            <mxPoint x="430" y="340" as="sourcePoint" />
            <mxPoint x="677" y="410" as="targetPoint" />
          </mxGeometry>
        </mxCell>
        <mxCell id="D0tFQq6_KejYttDr2Z5K-89" value="" style="edgeStyle=elbowEdgeStyle;elbow=vertical;strokeWidth=4;endArrow=block;endFill=1;fontStyle=1;strokeColor=#23445D;entryX=0.5;entryY=0;entryDx=0;entryDy=0;exitX=0.5;exitY=1;exitDx=0;exitDy=0;" edge="1" parent="1" source="D0tFQq6_KejYttDr2Z5K-80" target="D0tFQq6_KejYttDr2Z5K-81">
          <mxGeometry x="22" y="165.5" width="100" height="100" as="geometry">
            <mxPoint x="670" y="340" as="sourcePoint" />
            <mxPoint x="917" y="410" as="targetPoint" />
          </mxGeometry>
        </mxCell>
        <mxCell id="D0tFQq6_KejYttDr2Z5K-90" value="Project Manager #1" style="rounded=1;fillColor=#dae8fc;strokeColor=#6c8ebf;shadow=1;fontStyle=1;fontSize=14;" vertex="1" parent="1">
          <mxGeometry x="870" y="480" width="200" height="60" as="geometry" />
        </mxCell>
        <mxCell id="D0tFQq6_KejYttDr2Z5K-91" value="Developer" style="rounded=1;fillColor=#dae8fc;strokeColor=#6c8ebf;shadow=1;fontStyle=1;fontSize=14;" vertex="1" parent="1">
          <mxGeometry x="780" y="610" width="110" height="60" as="geometry" />
        </mxCell>
        <mxCell id="D0tFQq6_KejYttDr2Z5K-92" value="" style="edgeStyle=elbowEdgeStyle;elbow=vertical;strokeWidth=4;endArrow=block;endFill=1;fontStyle=1;strokeColor=#000000;entryX=0.5;entryY=0;entryDx=0;entryDy=0;exitX=0.5;exitY=1;exitDx=0;exitDy=0;fillColor=#dae8fc;" edge="1" parent="1" source="D0tFQq6_KejYttDr2Z5K-90" target="D0tFQq6_KejYttDr2Z5K-95">
          <mxGeometry x="22" y="165.5" width="100" height="100" as="geometry">
            <mxPoint x="990" y="560" as="sourcePoint" />
            <mxPoint x="1282" y="625.5" as="targetPoint" />
          </mxGeometry>
        </mxCell>
        <mxCell id="D0tFQq6_KejYttDr2Z5K-93" value="Developer" style="rounded=1;fillColor=#dae8fc;strokeColor=#6c8ebf;shadow=1;fontStyle=1;fontSize=14;" vertex="1" parent="1">
          <mxGeometry x="850" y="680" width="110" height="60" as="geometry" />
        </mxCell>
        <mxCell id="D0tFQq6_KejYttDr2Z5K-94" value="Developer" style="rounded=1;fillColor=#dae8fc;strokeColor=#6c8ebf;shadow=1;fontStyle=1;fontSize=14;" vertex="1" parent="1">
          <mxGeometry x="970" y="680" width="110" height="60" as="geometry" />
        </mxCell>
        <mxCell id="D0tFQq6_KejYttDr2Z5K-95" value="Developer" style="rounded=1;fillColor=#dae8fc;strokeColor=#6c8ebf;shadow=1;fontStyle=1;fontSize=14;" vertex="1" parent="1">
          <mxGeometry x="1040" y="610" width="110" height="60" as="geometry" />
        </mxCell>
        <mxCell id="D0tFQq6_KejYttDr2Z5K-96" value="" style="edgeStyle=elbowEdgeStyle;elbow=vertical;strokeWidth=4;endArrow=block;endFill=1;fontStyle=1;strokeColor=#000000;entryX=0.5;entryY=0;entryDx=0;entryDy=0;exitX=0.5;exitY=1;exitDx=0;exitDy=0;fillColor=#dae8fc;" edge="1" parent="1" source="D0tFQq6_KejYttDr2Z5K-90" target="D0tFQq6_KejYttDr2Z5K-94">
          <mxGeometry x="22" y="165.5" width="100" height="100" as="geometry">
            <mxPoint x="960" y="550" as="sourcePoint" />
            <mxPoint x="1207" y="620" as="targetPoint" />
          </mxGeometry>
        </mxCell>
        <mxCell id="D0tFQq6_KejYttDr2Z5K-97" value="" style="edgeStyle=elbowEdgeStyle;elbow=vertical;strokeWidth=4;endArrow=block;endFill=1;fontStyle=1;strokeColor=#000000;entryX=0.5;entryY=0;entryDx=0;entryDy=0;exitX=0.5;exitY=1;exitDx=0;exitDy=0;fillColor=#dae8fc;" edge="1" parent="1" source="D0tFQq6_KejYttDr2Z5K-90" target="D0tFQq6_KejYttDr2Z5K-93">
          <mxGeometry x="22" y="165.5" width="100" height="100" as="geometry">
            <mxPoint x="730" y="540" as="sourcePoint" />
            <mxPoint x="977" y="610" as="targetPoint" />
          </mxGeometry>
        </mxCell>
        <mxCell id="D0tFQq6_KejYttDr2Z5K-98" value="" style="edgeStyle=elbowEdgeStyle;elbow=vertical;strokeWidth=4;endArrow=block;endFill=1;fontStyle=1;strokeColor=#000000;entryX=0.5;entryY=0;entryDx=0;entryDy=0;exitX=0.5;exitY=1;exitDx=0;exitDy=0;fillColor=#dae8fc;" edge="1" parent="1" source="D0tFQq6_KejYttDr2Z5K-90" target="D0tFQq6_KejYttDr2Z5K-91">
          <mxGeometry x="22" y="165.5" width="100" height="100" as="geometry">
            <mxPoint x="970" y="540" as="sourcePoint" />
            <mxPoint x="1217" y="610" as="targetPoint" />
          </mxGeometry>
        </mxCell>
        <mxCell id="D0tFQq6_KejYttDr2Z5K-99" value="Project Manager #2" style="rounded=1;fillColor=#dae8fc;strokeColor=#000000;shadow=1;fontStyle=1;fontSize=14;" vertex="1" parent="1">
          <mxGeometry x="1090" y="170" width="200" height="60" as="geometry" />
        </mxCell>
        <mxCell id="D0tFQq6_KejYttDr2Z5K-100" value="Developer" style="rounded=1;fillColor=#dae8fc;strokeColor=#000000;shadow=1;fontStyle=1;fontSize=14;" vertex="1" parent="1">
          <mxGeometry x="1000" y="300" width="110" height="60" as="geometry" />
        </mxCell>
        <mxCell id="D0tFQq6_KejYttDr2Z5K-101" value="" style="edgeStyle=elbowEdgeStyle;elbow=vertical;strokeWidth=4;endArrow=block;endFill=1;fontStyle=1;strokeColor=#000000;entryX=0.5;entryY=0;entryDx=0;entryDy=0;exitX=0.5;exitY=1;exitDx=0;exitDy=0;fillColor=#dae8fc;" edge="1" parent="1" source="D0tFQq6_KejYttDr2Z5K-99" target="D0tFQq6_KejYttDr2Z5K-104">
          <mxGeometry x="22" y="165.5" width="100" height="100" as="geometry">
            <mxPoint x="1210" y="250" as="sourcePoint" />
            <mxPoint x="1502" y="315.5" as="targetPoint" />
          </mxGeometry>
        </mxCell>
        <mxCell id="D0tFQq6_KejYttDr2Z5K-102" value="Developer" style="rounded=1;fillColor=#dae8fc;strokeColor=#000000;shadow=1;fontStyle=1;fontSize=14;" vertex="1" parent="1">
          <mxGeometry x="1070" y="370" width="110" height="60" as="geometry" />
        </mxCell>
        <mxCell id="D0tFQq6_KejYttDr2Z5K-103" value="Developer" style="rounded=1;fillColor=#dae8fc;strokeColor=#000000;shadow=1;fontStyle=1;fontSize=14;" vertex="1" parent="1">
          <mxGeometry x="1190" y="370" width="110" height="60" as="geometry" />
        </mxCell>
        <mxCell id="D0tFQq6_KejYttDr2Z5K-104" value="Developer" style="rounded=1;fillColor=#dae8fc;strokeColor=#000000;shadow=1;fontStyle=1;fontSize=14;" vertex="1" parent="1">
          <mxGeometry x="1260" y="300" width="110" height="60" as="geometry" />
        </mxCell>
        <mxCell id="D0tFQq6_KejYttDr2Z5K-105" value="" style="edgeStyle=elbowEdgeStyle;elbow=vertical;strokeWidth=4;endArrow=block;endFill=1;fontStyle=1;strokeColor=#000000;entryX=0.5;entryY=0;entryDx=0;entryDy=0;exitX=0.5;exitY=1;exitDx=0;exitDy=0;fillColor=#dae8fc;" edge="1" parent="1" source="D0tFQq6_KejYttDr2Z5K-99" target="D0tFQq6_KejYttDr2Z5K-103">
          <mxGeometry x="22" y="165.5" width="100" height="100" as="geometry">
            <mxPoint x="1180" y="240" as="sourcePoint" />
            <mxPoint x="1427" y="310" as="targetPoint" />
          </mxGeometry>
        </mxCell>
        <mxCell id="D0tFQq6_KejYttDr2Z5K-106" value="" style="edgeStyle=elbowEdgeStyle;elbow=vertical;strokeWidth=4;endArrow=block;endFill=1;fontStyle=1;strokeColor=#000000;entryX=0.5;entryY=0;entryDx=0;entryDy=0;exitX=0.5;exitY=1;exitDx=0;exitDy=0;fillColor=#dae8fc;" edge="1" parent="1" source="D0tFQq6_KejYttDr2Z5K-99" target="D0tFQq6_KejYttDr2Z5K-102">
          <mxGeometry x="22" y="165.5" width="100" height="100" as="geometry">
            <mxPoint x="950" y="230" as="sourcePoint" />
            <mxPoint x="1197" y="300" as="targetPoint" />
          </mxGeometry>
        </mxCell>
        <mxCell id="D0tFQq6_KejYttDr2Z5K-107" value="" style="edgeStyle=elbowEdgeStyle;elbow=vertical;strokeWidth=4;endArrow=block;endFill=1;fontStyle=1;strokeColor=#000000;entryX=0.5;entryY=0;entryDx=0;entryDy=0;exitX=0.5;exitY=1;exitDx=0;exitDy=0;fillColor=#dae8fc;" edge="1" parent="1" source="D0tFQq6_KejYttDr2Z5K-99" target="D0tFQq6_KejYttDr2Z5K-100">
          <mxGeometry x="22" y="165.5" width="100" height="100" as="geometry">
            <mxPoint x="1190" y="230" as="sourcePoint" />
            <mxPoint x="1437" y="300" as="targetPoint" />
          </mxGeometry>
        </mxCell>
        <mxCell id="D0tFQq6_KejYttDr2Z5K-114" value="" style="edgeStyle=elbowEdgeStyle;elbow=vertical;strokeWidth=4;endArrow=block;endFill=1;fontStyle=1;strokeColor=#23445D;exitX=1;exitY=0.5;exitDx=0;exitDy=0;entryX=0.5;entryY=0;entryDx=0;entryDy=0;" edge="1" parent="1" source="2" target="D0tFQq6_KejYttDr2Z5K-90">
          <mxGeometry x="22" y="165.5" width="100" height="100" as="geometry">
            <mxPoint x="810" y="230" as="sourcePoint" />
            <mxPoint x="1050" y="280" as="targetPoint" />
            <Array as="points">
              <mxPoint x="860" y="200" />
            </Array>
          </mxGeometry>
        </mxCell>
        <mxCell id="D0tFQq6_KejYttDr2Z5K-115" value="NRI PIC #1" style="rounded=1;fillColor=#fff2cc;strokeColor=#d6b656;shadow=1;fontStyle=1;fontSize=14;" vertex="1" parent="1">
          <mxGeometry x="330" y="60" width="200" height="60" as="geometry" />
        </mxCell>
        <mxCell id="D0tFQq6_KejYttDr2Z5K-116" value="NRI Management " style="rounded=1;fillColor=#fff2cc;strokeColor=#d6b656;shadow=1;fontStyle=1;fontSize=14;" vertex="1" parent="1">
          <mxGeometry x="20" y="60" width="200" height="60" as="geometry" />
        </mxCell>
        <mxCell id="D0tFQq6_KejYttDr2Z5K-117" style="edgeStyle=orthogonalEdgeStyle;rounded=0;orthogonalLoop=1;jettySize=auto;html=1;strokeWidth=4;dashed=1;entryX=0;entryY=0.5;entryDx=0;entryDy=0;exitX=1;exitY=0.5;exitDx=0;exitDy=0;" edge="1" parent="1" source="D0tFQq6_KejYttDr2Z5K-116" target="D0tFQq6_KejYttDr2Z5K-115">
          <mxGeometry relative="1" as="geometry">
            <mxPoint x="240" y="120" as="sourcePoint" />
            <mxPoint x="280" y="100" as="targetPoint" />
          </mxGeometry>
        </mxCell>
        <mxCell id="D0tFQq6_KejYttDr2Z5K-118" style="edgeStyle=orthogonalEdgeStyle;rounded=0;orthogonalLoop=1;jettySize=auto;html=1;exitX=0.5;exitY=1;exitDx=0;exitDy=0;entryX=0.5;entryY=0;entryDx=0;entryDy=0;strokeWidth=4;" edge="1" parent="1" source="D0tFQq6_KejYttDr2Z5K-115" target="2">
          <mxGeometry relative="1" as="geometry">
            <mxPoint x="240" y="220" as="sourcePoint" />
            <mxPoint x="350" y="220" as="targetPoint" />
          </mxGeometry>
        </mxCell>
        <mxCell id="D0tFQq6_KejYttDr2Z5K-119" value="NRI Project PIC #2" style="rounded=1;fillColor=#fff2cc;strokeColor=#d6b656;shadow=1;fontStyle=1;fontSize=14;" vertex="1" parent="1">
          <mxGeometry x="1090" y="30" width="200" height="60" as="geometry" />
        </mxCell>
        <mxCell id="D0tFQq6_KejYttDr2Z5K-120" value="NRI Project PIC #1" style="rounded=1;fillColor=#fff2cc;strokeColor=#d6b656;shadow=1;fontStyle=1;fontSize=14;" vertex="1" parent="1">
          <mxGeometry x="870" y="100" width="200" height="60" as="geometry" />
        </mxCell>
        <mxCell id="D0tFQq6_KejYttDr2Z5K-122" style="edgeStyle=orthogonalEdgeStyle;rounded=0;orthogonalLoop=1;jettySize=auto;html=1;exitX=0.5;exitY=1;exitDx=0;exitDy=0;entryX=0.5;entryY=0;entryDx=0;entryDy=0;strokeWidth=4;" edge="1" parent="1" source="D0tFQq6_KejYttDr2Z5K-119" target="D0tFQq6_KejYttDr2Z5K-99">
          <mxGeometry relative="1" as="geometry">
            <mxPoint x="570" y="140" as="sourcePoint" />
            <mxPoint x="570" y="190" as="targetPoint" />
          </mxGeometry>
        </mxCell>
        <mxCell id="D0tFQq6_KejYttDr2Z5K-123" style="edgeStyle=orthogonalEdgeStyle;rounded=0;orthogonalLoop=1;jettySize=auto;html=1;entryX=0.25;entryY=0;entryDx=0;entryDy=0;strokeWidth=4;exitX=0.25;exitY=1;exitDx=0;exitDy=0;" edge="1" parent="1" source="D0tFQq6_KejYttDr2Z5K-120" target="D0tFQq6_KejYttDr2Z5K-90">
          <mxGeometry relative="1" as="geometry">
            <mxPoint x="920" y="170" as="sourcePoint" />
            <mxPoint x="1141" y="180" as="targetPoint" />
          </mxGeometry>
        </mxCell>
        <mxCell id="D0tFQq6_KejYttDr2Z5K-124" style="edgeStyle=orthogonalEdgeStyle;rounded=0;orthogonalLoop=1;jettySize=auto;html=1;strokeWidth=4;dashed=1;entryX=0;entryY=0.5;entryDx=0;entryDy=0;exitX=1;exitY=0.75;exitDx=0;exitDy=0;" edge="1" parent="1" source="D0tFQq6_KejYttDr2Z5K-115" target="D0tFQq6_KejYttDr2Z5K-120">
          <mxGeometry relative="1" as="geometry">
            <mxPoint x="230" y="100" as="sourcePoint" />
            <mxPoint x="340" y="100" as="targetPoint" />
          </mxGeometry>
        </mxCell>
        <mxCell id="D0tFQq6_KejYttDr2Z5K-125" style="edgeStyle=orthogonalEdgeStyle;rounded=0;orthogonalLoop=1;jettySize=auto;html=1;strokeWidth=4;dashed=1;entryX=0;entryY=0.5;entryDx=0;entryDy=0;exitX=1;exitY=0.25;exitDx=0;exitDy=0;" edge="1" parent="1" source="D0tFQq6_KejYttDr2Z5K-115" target="D0tFQq6_KejYttDr2Z5K-119">
          <mxGeometry relative="1" as="geometry">
            <mxPoint x="540" y="100" as="sourcePoint" />
            <mxPoint x="880" y="140" as="targetPoint" />
          </mxGeometry>
        </mxCell>
      </root>
    </mxGraphModel>
  </diagram>
</mxfile>
